<?xml version="1.0" standalone="no"?>
<!DOCTYPE svg PUBLIC "-//W3C//DTD SVG 20010904//EN"
 "http://www.w3.org/TR/2001/REC-SVG-20010904/DTD/svg10.dtd">
<svg version="1.0" xmlns="http://www.w3.org/2000/svg"
 width="1080.000000pt" height="669.000000pt" viewBox="0 0 1080.000000 669.000000"
 preserveAspectRatio="xMidYMid meet">

<g transform="translate(0.000000,669.000000) scale(0.100000,-0.100000)"
fill="#000000" stroke="none">
<path d="M0 3345 l0 -3345 5400 0 5400 0 0 3345 0 3345 -5400 0 -5400 0 0
-3345z m5681 2395 c455 -46 890 -244 1211 -549 263 -250 433 -514 542 -841 58
-174 83 -302 96 -486 44 -609 -177 -1193 -603 -1601 -186 -177 -327 -276 -550
-384 -321 -154 -570 -205 -964 -196 -217 4 -253 9 -453 56 -238 56 -505 183
-728 348 -95 70 -283 252 -365 353 -219 271 -372 615 -424 954 -23 153 -23
471 0 623 60 385 213 717 466 1014 338 395 818 647 1351 708 109 12 302 13
421 1z m-96 -4368 c163 -80 164 -331 2 -414 -95 -48 -215 -15 -271 76 -35 57
-45 142 -25 213 33 119 180 182 294 125z m463 13 c60 -18 92 -53 92 -101 0
-44 -12 -43 -33 1 -48 100 -185 98 -237 -4 -23 -46 -27 -140 -8 -203 23 -77
99 -122 171 -101 31 9 32 10 38 82 6 85 27 111 85 111 38 0 41 -4 19 -26 -11
-11 -15 -37 -15 -90 l0 -75 -37 -16 c-21 -9 -72 -18 -113 -21 -84 -5 -123 7
-179 54 -110 92 -90 307 34 372 64 33 112 38 183 17z m-2276 -36 c10 -19 49
-106 88 -194 38 -88 79 -167 90 -177 29 -24 25 -28 -28 -28 -55 0 -80 20 -107
83 l-15 37 -85 0 -85 0 -26 -57 c-13 -32 -29 -60 -34 -63 -6 -4 -37 -6 -69 -6
-72 1 -89 14 -152 121 -28 48 -50 75 -61 75 -16 0 -18 -11 -18 -95 l0 -95 -45
0 -45 0 0 195 c0 184 -1 196 -20 207 -11 7 -20 16 -20 20 0 12 219 9 262 -2
47 -13 88 -61 88 -103 0 -42 -33 -95 -65 -103 -14 -3 -25 -12 -25 -19 0 -21
105 -170 122 -173 11 -2 22 8 32 30 8 18 44 103 81 188 94 219 102 229 137
159z m2833 35 c14 -6 16 -29 14 -200 -2 -193 -2 -194 22 -213 l24 -20 -55 -1
c-31 0 -61 5 -68 12 -8 8 -12 45 -12 100 0 102 1 101 -110 96 l-65 -3 -3 -102
-3 -103 -44 0 -45 0 0 195 c0 184 -1 196 -20 207 -11 7 -20 16 -20 20 0 14
107 9 118 -5 6 -7 12 -49 14 -92 l3 -80 85 0 85 0 3 92 c2 77 6 92 20 96 27 7
39 7 57 1z m1495 -5 c0 -6 -31 -62 -70 -125 l-69 -114 -3 -92 -3 -93 -42 -3
-43 -3 0 87 0 87 -66 104 c-36 56 -76 111 -90 122 -13 10 -24 22 -24 25 0 3
23 6 51 6 60 0 79 -16 144 -124 22 -36 45 -65 50 -65 6 -1 33 38 60 86 28 47
56 92 63 99 16 17 42 18 42 3z m-5466 -50 c25 -28 78 -91 118 -140 40 -49 76
-89 80 -89 4 0 8 63 8 140 0 133 1 140 20 140 19 0 20 -7 20 -215 0 -281 8
-279 -188 -37 -55 68 -104 123 -108 123 -5 -1 -7 -69 -5 -151 l3 -150 -26 0
-26 0 0 195 0 195 -25 12 c-40 18 -29 28 29 28 52 0 56 -2 100 -51z m436 -144
c0 -184 1 -195 20 -205 33 -18 23 -30 -26 -30 -87 0 -84 -7 -84 225 l0 205 45
0 45 0 0 -195z m1024 173 c13 -18 16 -56 16 -200 l0 -178 105 0 c87 0 105 -3
105 -15 0 -13 -23 -15 -150 -15 l-150 0 0 186 c0 185 -6 224 -35 224 -8 0 -15
5 -15 10 0 6 24 10 54 10 45 0 58 -4 70 -22z m366 -173 l0 -195 25 -12 c40
-18 29 -28 -29 -28 -87 0 -86 -1 -86 231 l0 199 45 0 45 0 0 -195z m435 50
c38 -80 74 -144 79 -142 6 2 38 67 71 145 l60 142 48 0 47 0 0 -192 c0 -177 2
-196 21 -227 11 -18 18 -35 16 -38 -12 -11 -78 11 -99 34 -21 23 -23 35 -28
171 l-5 147 -22 -50 c-11 -27 -42 -101 -68 -162 -26 -64 -53 -113 -60 -113 -8
0 -48 72 -91 160 -42 88 -81 160 -87 160 -5 0 -7 -65 -5 -157 3 -157 3 -158
-19 -161 l-23 -3 0 215 0 216 48 0 47 0 70 -145z m2089 -41 c44 -102 90 -195
103 -207 32 -31 29 -37 -18 -37 -56 0 -75 13 -104 70 l-25 50 -84 0 -83 0 -26
-60 c-20 -45 -31 -60 -47 -60 -11 0 -20 2 -20 5 0 3 34 85 76 183 42 97 83
192 90 210 10 22 21 32 37 32 19 0 32 -25 101 -186z m412 167 c49 -22 74 -54
74 -95 0 -41 -35 -92 -71 -105 l-31 -11 23 -37 c40 -67 61 -97 91 -129 25 -27
27 -32 13 -38 -27 -10 -89 11 -117 41 -15 16 -42 55 -60 88 -23 41 -40 60 -53
60 -18 0 -20 -8 -23 -92 l-3 -93 -39 0 -40 0 -1 73 c-3 311 -3 308 -26 327
-13 10 -23 21 -23 24 0 3 55 6 123 6 97 0 130 -4 163 -19z m244 -176 l0 -195
25 -12 c40 -18 29 -28 -29 -28 -86 0 -86 -1 -86 224 0 106 3 196 7 199 3 4 24
7 45 7 l38 0 0 -195z m689 118 c66 -166 130 -299 157 -325 l27 -28 -49 0 c-61
0 -88 17 -113 75 l-20 45 -84 0 -84 0 -27 -60 c-20 -44 -32 -60 -47 -60 -10 0
-19 3 -19 7 0 7 61 149 122 283 17 36 37 82 45 103 11 27 21 37 38 37 19 0 28
-13 54 -77z"/>
<path d="M5305 5623 c-362 -29 -749 -184 -1037 -416 -105 -84 -270 -251 -341
-344 -162 -212 -280 -469 -341 -747 -231 -1041 451 -2072 1511 -2286 267 -53
612 -42 888 31 203 53 457 173 635 299 124 89 330 290 419 410 318 429 448
997 345 1500 -128 618 -531 1124 -1106 1389 -279 128 -649 191 -973 164z m499
-117 c192 -40 306 -77 471 -155 536 -255 889 -706 1010 -1291 46 -225 44 -508
-5 -730 -22 -98 -60 -228 -84 -284 l-16 -38 -47 7 c-27 4 -50 8 -52 10 -1 2
11 46 28 97 121 371 134 686 41 1036 -30 111 -102 305 -122 330 -13 15 -60 7
-95 -15 -12 -8 -30 -36 -40 -61 -17 -44 -18 -94 -18 -687 0 -617 1 -642 20
-689 29 -70 60 -90 155 -97 44 -3 83 -8 87 -12 3 -4 1 -18 -5 -32 l-12 -25
-350 0 -350 0 0 29 c0 27 4 30 43 36 62 11 92 30 113 72 18 36 19 73 22 628 2
344 -1 586 -6 580 -5 -6 -16 -28 -25 -50 -8 -22 -99 -220 -202 -440 -103 -220
-211 -452 -240 -515 -91 -200 -84 -190 -124 -190 l-36 1 -148 297 c-81 163
-214 428 -295 587 l-147 290 -3 -515 c-3 -520 2 -610 34 -672 19 -37 57 -61
108 -68 38 -5 41 -8 44 -37 3 -32 2 -33 -37 -33 -23 0 -41 -4 -41 -8 0 -18
180 -185 255 -238 84 -58 226 -130 310 -157 212 -68 458 -36 683 89 68 38 241
153 300 200 17 15 32 22 32 17 0 -16 -113 -169 -191 -259 -368 -424 -946 -657
-1528 -614 -228 17 -392 57 -612 149 -266 111 -530 319 -725 571 -121 156
-235 380 -288 564 -62 214 -70 274 -71 526 0 267 12 348 87 578 l40 123 57 -3
c44 -2 55 -6 52 -18 -3 -8 -22 -65 -43 -127 -89 -265 -114 -516 -77 -783 20
-144 81 -355 142 -492 22 -49 30 -58 52 -58 40 0 81 26 98 62 34 72 38 152 35
738 -3 523 -5 579 -21 620 -32 81 -97 127 -193 137 -58 6 -60 8 -42 49 l13 27
115 -7 c206 -11 322 -55 446 -169 143 -131 275 -308 515 -692 224 -358 320
-505 330 -505 7 0 9 203 7 563 -4 511 -5 566 -22 609 -23 62 -72 105 -131 113
-41 7 -45 10 -45 36 0 26 3 29 35 29 49 0 45 19 -12 70 -100 89 -255 173 -384
210 -103 30 -299 38 -392 16 -120 -28 -307 -118 -374 -179 -47 -42 -33 -5 37
96 195 285 494 520 826 651 98 39 323 99 426 115 100 15 489 7 582 -13z"/>
<path d="M5370 5423 c-19 -1 -68 -6 -109 -9 -76 -6 -83 -24 -9 -24 131 0 369
-87 577 -209 327 -193 530 -271 712 -271 80 0 159 10 159 20 0 15 -145 131
-249 201 -314 211 -736 325 -1081 292z"/>
<path d="M4790 5246 c-123 -28 -245 -83 -345 -155 -75 -55 -235 -199 -235
-211 0 -5 33 6 73 25 149 71 339 96 506 65 293 -53 568 -246 752 -529 38 -57
172 -312 300 -567 127 -255 235 -464 239 -464 4 0 37 64 73 143 36 78 114 243
173 367 59 124 150 317 203 430 l97 205 177 3 c97 1 177 6 177 10 0 13 -101
164 -151 226 -30 37 -49 53 -59 49 -192 -77 -336 -101 -490 -82 -190 22 -352
87 -630 251 -248 146 -370 201 -523 233 -81 18 -260 18 -337 1z m275 -91 c167
-35 276 -81 505 -213 282 -164 423 -227 567 -257 90 -18 261 -22 336 -7 26 5
47 7 47 5 0 -10 -131 -62 -200 -79 -88 -21 -237 -24 -325 -5 -168 36 -311 98
-565 246 -301 175 -479 236 -695 237 -109 0 -160 -8 -250 -37 -18 -6 -18 -5 2
13 27 23 172 78 258 97 82 18 231 18 320 0z"/>
<path d="M4209 4196 c-2 -2 -2 -260 1 -573 5 -527 6 -571 24 -611 20 -47 51
-68 115 -78 37 -6 41 -9 41 -35 l0 -29 -204 0 c-113 0 -207 -4 -210 -8 -5 -9
75 -130 147 -222 34 -44 53 -60 65 -57 9 3 50 19 90 36 152 64 331 78 513 41
177 -36 271 -77 548 -237 181 -105 327 -172 447 -205 64 -17 109 -21 239 -22
191 -1 243 10 390 84 93 47 242 146 233 155 -2 3 -49 -15 -104 -40 -151 -68
-275 -97 -414 -98 -302 -2 -568 127 -837 406 -145 152 -265 319 -545 765 -161
257 -302 463 -389 572 -80 98 -142 164 -150 156z"/>
<path d="M4282 2513 c-18 -3 -32 -9 -30 -14 7 -21 159 -144 265 -216 331 -221
755 -320 1171 -272 106 12 154 28 87 29 -158 1 -365 74 -632 221 -393 218
-613 282 -861 252z"/>
<path d="M5455 1351 c-72 -31 -105 -161 -70 -278 37 -124 156 -138 208 -25 41
90 22 242 -36 291 -20 16 -77 23 -102 12z"/>
<path d="M3270 1266 c0 -47 4 -87 8 -90 15 -9 86 13 100 31 48 66 6 143 -78
143 l-30 0 0 -84z"/>
<path d="M3686 1208 c-45 -103 -47 -98 29 -98 63 0 66 1 60 21 -13 39 -55 129
-60 129 -4 0 -16 -24 -29 -52z"/>
<path d="M6822 1187 l-30 -72 60 -3 c33 -2 63 -1 65 2 6 6 -47 135 -57 141 -4
3 -21 -28 -38 -68z"/>
<path d="M7245 1309 c-4 -24 -5 -62 -3 -84 3 -38 5 -40 39 -43 52 -4 93 32 93
82 0 47 -28 76 -82 83 l-40 5 -7 -43z"/>
<path d="M8216 1195 c-14 -36 -26 -70 -26 -75 0 -6 27 -10 60 -10 34 0 60 4
60 10 0 13 -57 140 -63 140 -3 0 -17 -29 -31 -65z"/>
</g>
</svg>
